# xmcd CD database file
#
# Track frame offsets:
#	150
#	10421
#	23094
#	34698
#	48739
#	62009
#	75818
#	85482
#	99196
#	113682
#	124531
#	135844
#	148482
#	160780
#	173863
#	181936
#	194445
#	205894
#	216557
#	228351
#	238714
#	250904
#	263218
#	275092
#	286608
#
# Disc length: 3967 seconds
#
# Revision: 0
# Processed by: cddbd v1.5.1PL2 Copyright (c) Steve Scherf et al.
# Submitted via: CDex 1.51
#
DISCID=5d0f7d19
DTITLE=Various Artist - 100xNo.1 Country Hits CD3
DYEAR=2005
DGENRE=Country
TTITLE0=Eddy Arnold - There's Been A Change In Me
TTITLE1=Hank Snow - Rhumba Boogie
TTITLE2=Eddy Arnold - Kentucky Waltz
TTITLE3=Lefty Frizzel - Always Late (With Your Kisses)
TTITLE4=Hank Williams - Hey, Good Lookin'
TTITLE5=Lefty Frizzel - I Want To Be With You Always
TTITLE6=Les Paul, Mary Ford - How High The Moon
TTITLE7=Pee Wee King - Slow Poke
TTITLE8=Red Foley - (There Will Be) Peace In The Valley
TTITLE9=Carl Smith - Don't Just Stand There
TTITLE10=Eddy Arnold - A Full Time Job
TTITLE11=Hank Snow - Golden Rocket
TTITLE12=Hank Thompson - The Wild Side Of Life
TTITLE13=Hank Williams - Jambalaya (On The Bayou)
TTITLE14=Kitty Wells - It Wasn't God Who Made Honky Tonk Angels
TTITLE15=Skeets McDonalds - Dont Let The Stars Get In You Eyes
TTITLE16=Carl Smith - Hey Joe
TTITLE17=Eddy Arnold - Eddy's Song
TTITLE18=Goldie Hill - I Let The Stars Get In My Eyes
TTITLE19=Hank Thompson - Wake Up Irene
TTITLE20=Faron Young - Goin' Steady
TTITLE21=Hank Williams - Your Cheatin' Heart
TTITLE22=Tennessee Earni Ford, Kay Starr - I'll Never Be Free
TTITLE23=Ferlin Husky, Jean Shephard - A Dear John Letter
TTITLE24=Jean Shephard - A Satisfied Mind
EXTD=YEAR: 2005
EXTT0=
EXTT1=
EXTT2=
EXTT3=
EXTT4=
EXTT5=
EXTT6=
EXTT7=
EXTT8=
EXTT9=
EXTT10=
EXTT11=
EXTT12=
EXTT13=
EXTT14=
EXTT15=
EXTT16=
EXTT17=
EXTT18=
EXTT19=
EXTT20=
EXTT21=
EXTT22=
EXTT23=
EXTT24=
PLAYORDER=
